<svg xmlns="http://www.w3.org/2000/svg" xmlns:xlink="http://www.w3.org/1999/xlink" width="550.43" height="235.61" viewBox="0 0 550.43 235.61"><defs><style>.cls-1{fill:url(#Unbenannter_Verlauf_125);}.cls-2{fill:url(#Unbenannter_Verlauf_125-2);}.cls-3{fill:url(#Unbenannter_Verlauf_125-3);}.cls-4{fill:url(#Unbenannter_Verlauf_125-4);}.cls-5{fill:url(#Unbenannter_Verlauf_125-5);}.cls-6{fill:url(#Unbenannter_Verlauf_125-6);}.cls-7{fill:url(#Unbenannter_Verlauf_125-7);}.cls-8{fill:url(#Unbenannter_Verlauf_125-8);}.cls-9{fill:url(#Unbenannter_Verlauf_125-9);}.cls-10{fill:#2e3433;stroke:#4b5050;stroke-miterlimit:10;stroke-width:0.75px;}.cls-11{fill:url(#Unbenannter_Verlauf_67);}.cls-12{fill:#0d1413;}.cls-13{fill:url(#Unbenannter_Verlauf_125-10);}.cls-14{fill:#767b7a;}.cls-15{fill:url(#Unbenannter_Verlauf_125-11);}.cls-16{fill:#4b5050;}.cls-17{fill:#202424;}.cls-18{fill:#8b2231;}.cls-19{fill:#f19daa;}.cls-20{fill:#ffd7dd;}.cls-21{fill:#923b41;}.cls-22{fill:#ffb3c2;}.cls-23{fill:#ffc9cf;}.cls-24{fill:url(#Unbenannter_Verlauf_151);}</style><linearGradient id="Unbenannter_Verlauf_125" x1="28.17" y1="281.86" x2="28.17" y2="117.76" gradientUnits="userSpaceOnUse"><stop offset="0" stop-color="#767b7a"/><stop offset="0.59" stop-color="#5a5f5e"/><stop offset="1" stop-color="#4b5050"/></linearGradient><linearGradient id="Unbenannter_Verlauf_125-2" x1="96.81" y1="281.86" x2="96.81" y2="117.76" xlink:href="#Unbenannter_Verlauf_125"/><linearGradient id="Unbenannter_Verlauf_125-3" x1="166.09" y1="281.86" x2="166.09" y2="117.76" xlink:href="#Unbenannter_Verlauf_125"/><linearGradient id="Unbenannter_Verlauf_125-4" x1="235.05" y1="281.86" x2="235.05" y2="117.76" xlink:href="#Unbenannter_Verlauf_125"/><linearGradient id="Unbenannter_Verlauf_125-5" x1="303.85" y1="281.86" x2="303.85" y2="117.76" xlink:href="#Unbenannter_Verlauf_125"/><linearGradient id="Unbenannter_Verlauf_125-6" x1="372.89" y1="281.86" x2="372.89" y2="117.76" xlink:href="#Unbenannter_Verlauf_125"/><linearGradient id="Unbenannter_Verlauf_125-7" x1="418.16" y1="281.86" x2="418.16" y2="117.76" xlink:href="#Unbenannter_Verlauf_125"/><linearGradient id="Unbenannter_Verlauf_125-8" x1="460.45" y1="281.86" x2="460.45" y2="117.76" xlink:href="#Unbenannter_Verlauf_125"/><linearGradient id="Unbenannter_Verlauf_125-9" x1="524.54" y1="281.86" x2="524.54" y2="117.76" xlink:href="#Unbenannter_Verlauf_125"/><linearGradient id="Unbenannter_Verlauf_67" x1="270.64" y1="81.36" x2="311.3" y2="15.2" gradientUnits="userSpaceOnUse"><stop offset="0" stop-color="#4b5050"/><stop offset="0.23" stop-color="#595e5d"/><stop offset="0.69" stop-color="#6e7372"/><stop offset="0.98" stop-color="#767b7a"/></linearGradient><linearGradient id="Unbenannter_Verlauf_125-10" x1="348.79" y1="108.26" x2="306.44" y2="107.55" xlink:href="#Unbenannter_Verlauf_125"/><linearGradient id="Unbenannter_Verlauf_125-11" x1="273.05" y1="137.67" x2="343.74" y2="137.67" xlink:href="#Unbenannter_Verlauf_125"/><linearGradient id="Unbenannter_Verlauf_151" x1="271.66" y1="137.75" x2="199.59" y2="137.75" gradientUnits="userSpaceOnUse"><stop offset="0" stop-color="#2e3433"/><stop offset="0.43" stop-color="#3c4241"/><stop offset="1" stop-color="#4b5050"/></linearGradient></defs><g id="Ebene_2" data-name="Ebene 2"><g id="Content"><path class="cls-1" d="M9,226.63a1.67,1.67,0,0,1-.51-1.22V189.32a1.74,1.74,0,0,1,1.73-1.73H46.12l8.47-8.47H10.2a9.84,9.84,0,0,0-7.22,3,9.84,9.84,0,0,0-3,7.22v36.09a9.84,9.84,0,0,0,3,7.22,9.84,9.84,0,0,0,7.22,3H56.33v-8.47H10.2A1.67,1.67,0,0,1,9,226.63Z"/><path class="cls-2" d="M78.77,179.12h36.09a10.17,10.17,0,0,1,10.2,10.2v46.29h-8.48V215.84H77v19.77H68.57V189.32a10.17,10.17,0,0,1,10.2-10.2ZM77,207.36h39.54v-18a1.67,1.67,0,0,0-.51-1.22,1.65,1.65,0,0,0-1.21-.51H78.77A1.74,1.74,0,0,0,77,189.32Z"/><path class="cls-3" d="M194.33,189.4v15.85a10.26,10.26,0,0,1-10.2,10.2h-5.72l15.92,19v1.18h-10l-16.95-20.16H148a13.78,13.78,0,0,1-1.72-.16v20.32h-8.48V179.2h46.29a10.24,10.24,0,0,1,10.2,10.2ZM148,207h36.09a1.67,1.67,0,0,0,1.22-.51,1.65,1.65,0,0,0,.51-1.21V189.4a1.74,1.74,0,0,0-1.73-1.73H148a1.65,1.65,0,0,0-1.21.51,1.67,1.67,0,0,0-.51,1.22v15.85A1.74,1.74,0,0,0,148,207Z"/><path class="cls-4" d="M259.92,205.25a9.6,9.6,0,0,1,3.37,7.53v12.63a10.17,10.17,0,0,1-10.2,10.2H206.81V179.12h43.93a10.17,10.17,0,0,1,10.2,10.2v11.53A10.38,10.38,0,0,1,259.92,205.25Zm-9.18-17.66H217a1.74,1.74,0,0,0-1.73,1.73v11.53a1.74,1.74,0,0,0,1.73,1.73h33.73a1.74,1.74,0,0,0,1.73-1.73V189.32a1.74,1.74,0,0,0-1.73-1.73Zm4.08,37.82V212.78a1.74,1.74,0,0,0-1.73-1.73H217a1.74,1.74,0,0,0-1.73,1.73v12.63a1.74,1.74,0,0,0,1.73,1.73h36.08a1.74,1.74,0,0,0,1.73-1.73Z"/><path class="cls-5" d="M285.81,179.12H321.9a10.17,10.17,0,0,1,10.2,10.2v36.09a10.17,10.17,0,0,1-10.2,10.2H285.81a10.17,10.17,0,0,1-10.2-10.2V189.32a10.17,10.17,0,0,1,10.2-10.2Zm0,48H321.9a1.69,1.69,0,0,0,1.22-.51,1.66,1.66,0,0,0,.5-1.22V189.32a1.66,1.66,0,0,0-.5-1.22,1.69,1.69,0,0,0-1.22-.51H285.81a1.74,1.74,0,0,0-1.73,1.73v36.09a1.74,1.74,0,0,0,1.73,1.73Z"/><path class="cls-6" d="M392.66,224.31V179.12h8.48v56.49H391.09l-38-45.19v45.19h-8.47V179.12h10Z"/><path class="cls-7" d="M413.92,235.61V179.12h8.48v56.49Z"/><path class="cls-8" d="M432.2,179.12h56.49v8.47h-24v48h-8.47v-48h-24Z"/><path class="cls-9" d="M550.43,179.12v8.47h-43.3v15.54H542v8.47H507.13v15.54h43.3v8.47H498.65V179.12Z"/><polygon class="cls-10" points="287.93 86.21 272.83 0.58 202.27 40.06 202.37 116.84 287.93 86.21"/><polygon class="cls-11" points="343.52 39.97 272.83 0.58 272.93 80.38 343.52 39.97"/><polygon class="cls-12" points="273.05 80.26 202.37 116.84 273.05 157.61 343.74 116.84 273.05 80.26"/><polygon class="cls-13" points="343.74 116.84 308.61 99.74 308.61 98.92 343.74 115.92 343.74 116.84"/><polygon class="cls-14" points="343.57 40 273.05 1.41 273.05 0.58 344.44 39.55 343.57 40"/><polygon class="cls-15" points="273.05 158.88 273.05 157.61 343.74 116.47 343.74 117.58 273.05 158.88"/><polygon class="cls-16" points="343.74 117.58 343.41 117.8 343.41 115.76 343.74 115.92 343.74 117.58"/><polygon class="cls-17" points="272.87 80.26 202 116.61 272.87 157.61 272.87 80.26"/><polygon class="cls-18" points="236.98 113.03 232.94 57.52 227.13 63.5 229.77 101.35 236.98 113.03"/><polygon class="cls-19" points="242 54.67 248.94 113.03 236.98 113.03 232.94 57.52 242 54.67"/><polygon class="cls-18" points="248.38 46.9 272.95 125.52 248.94 113.03 242 54.67 248.38 46.9"/><polygon class="cls-20" points="253.33 48.91 280.26 121.56 272.95 125.52 248.38 46.9 253.33 48.91"/><polygon class="cls-21" points="255.25 39.28 285.95 124.49 280.26 121.56 253.33 48.91 255.25 39.28"/><polygon class="cls-22" points="262.01 36.14 294.11 113.16 296.32 118.46 285.95 124.49 255.25 39.28 262.01 36.14"/><polygon class="cls-23" points="274.58 44.35 262.01 36.14 296.32 118.46 296.32 112.55 274.58 44.35"/><polygon class="cls-20" points="284.11 48.93 296.32 112.55 274.58 44.35 284.11 48.93"/><polygon class="cls-18" points="294.01 48.93 304.87 111.6 296.32 112.55 284.94 53.28 294.01 48.93"/><polygon class="cls-23" points="308.65 59.93 308.61 107.18 304.87 111.6 294.01 48.93 308.65 59.93"/><polygon class="cls-24" points="273.05 158.88 202 117.88 202 116.61 273.05 157.61 273.05 158.88"/></g></g></svg>