<svg xmlns="http://www.w3.org/2000/svg" width="550.43" height="253.56" viewBox="0 0 550.43 253.56"><defs><style>.cls-1{isolation:isolate;}.cls-2{fill:#111a19;}.cls-3{fill:#2e3433;}.cls-4{fill:#fff;mix-blend-mode:lighten;opacity:0.18;}.cls-5{fill:#0d1413;}.cls-6{fill:#767b7a;}.cls-7{fill:#8b2231;}.cls-8{fill:#f19daa;}.cls-9{fill:#ffd7dd;}.cls-10{fill:#923b41;}.cls-11{fill:#ffb3c2;}.cls-12{fill:#ffc9cf;}</style></defs><g class="cls-1"><g id="Ebene_2" data-name="Ebene 2"><g id="Content"><path class="cls-2" d="M9,244.58a1.65,1.65,0,0,1-.51-1.21V207.28a1.74,1.74,0,0,1,1.73-1.73H46.12l8.47-8.47H10.2a9.84,9.84,0,0,0-7.22,3,9.82,9.82,0,0,0-3,7.22v36.09a9.8,9.8,0,0,0,3,7.21,9.84,9.84,0,0,0,7.22,3H56.33v-8.47H10.2A1.67,1.67,0,0,1,9,244.58Z"/><path class="cls-2" d="M78.77,197.08h36.09a10.17,10.17,0,0,1,10.2,10.2v46.28h-8.48V233.79H77v19.77H68.57V207.28a10.17,10.17,0,0,1,10.2-10.2ZM77,225.32h39.54v-18a1.67,1.67,0,0,0-.51-1.22,1.65,1.65,0,0,0-1.21-.51H78.77A1.74,1.74,0,0,0,77,207.28Z"/><path class="cls-2" d="M194.33,207.35V223.2a9.84,9.84,0,0,1-3,7.18,9.74,9.74,0,0,1-7.22,3h-5.72l15.92,19v1.17h-10L167.34,233.4H148a12.09,12.09,0,0,1-1.72-.16v20.32h-8.48v-56.4h46.29a10.24,10.24,0,0,1,10.2,10.19ZM148,224.93h36.09a1.74,1.74,0,0,0,1.73-1.73V207.35a1.65,1.65,0,0,0-.51-1.21,1.67,1.67,0,0,0-1.22-.51H148a1.74,1.74,0,0,0-1.72,1.72V223.2a1.67,1.67,0,0,0,.51,1.22A1.65,1.65,0,0,0,148,224.93Z"/><path class="cls-2" d="M259.92,223.2a9.62,9.62,0,0,1,3.37,7.53v12.64a10.17,10.17,0,0,1-10.2,10.19H206.81V197.08h43.93a10.17,10.17,0,0,1,10.2,10.2v11.53A10.34,10.34,0,0,1,259.92,223.2Zm-9.18-17.65H217a1.74,1.74,0,0,0-1.73,1.73v11.53a1.72,1.72,0,0,0,1.73,1.72h33.73a1.72,1.72,0,0,0,1.73-1.72V207.28a1.74,1.74,0,0,0-1.73-1.73Zm4.08,37.82V230.73a1.74,1.74,0,0,0-1.73-1.72H217a1.67,1.67,0,0,0-1.22.51,1.65,1.65,0,0,0-.51,1.21v12.64a1.65,1.65,0,0,0,.51,1.21,1.67,1.67,0,0,0,1.22.51h36.08a1.74,1.74,0,0,0,1.73-1.72Z"/><path class="cls-2" d="M285.81,197.08H321.9a10.17,10.17,0,0,1,10.2,10.2v36.09a10.17,10.17,0,0,1-10.2,10.19H285.81a10.17,10.17,0,0,1-10.2-10.19V207.28a10.17,10.17,0,0,1,10.2-10.2Zm0,48H321.9a1.69,1.69,0,0,0,1.22-.51,1.64,1.64,0,0,0,.5-1.21V207.28a1.66,1.66,0,0,0-.5-1.22,1.69,1.69,0,0,0-1.22-.51H285.81a1.74,1.74,0,0,0-1.73,1.73v36.09a1.65,1.65,0,0,0,.51,1.21A1.67,1.67,0,0,0,285.81,245.09Z"/><path class="cls-2" d="M392.66,242.27V197.08h8.48v56.48H391.09l-38-45.19v45.19h-8.47V197.08h10Z"/><path class="cls-2" d="M413.92,253.56V197.08h8.48v56.48Z"/><path class="cls-2" d="M432.2,197.08h56.49v8.47h-24v48h-8.47v-48h-24Z"/><path class="cls-2" d="M550.43,197.08v8.47h-43.3v15.53H542v8.48H507.13v15.53h43.3v8.47H498.65V197.08Z"/><polygon class="cls-2" points="338.95 116.37 268.27 157.15 268.27 79.8 338.95 116.37"/><polygon class="cls-3" points="268.17 83.38 268.17 0 197.48 39.38 197.48 116.37 268.17 83.38"/><polygon class="cls-4" points="268.27 78.57 338.95 39.38 268.27 0 268.27 78.57"/><polygon class="cls-5" points="268.27 83.38 197.58 116.37 268.27 157.15 268.27 83.38"/><polygon class="cls-6" points="338.85 39.38 268.17 0 268.79 76.86 338.85 39.38"/><polygon class="cls-7" points="232.2 112.56 228.15 57.06 222.35 63.03 224.98 100.89 232.2 112.56"/><polygon class="cls-8" points="237.21 54.2 244.16 112.56 232.2 112.56 228.15 57.06 237.21 54.2"/><polygon class="cls-7" points="243.6 46.43 268.17 125.06 244.16 112.56 237.21 54.2 243.6 46.43"/><polygon class="cls-9" points="248.55 48.44 275.48 121.09 268.17 125.06 243.6 46.43 248.55 48.44"/><polygon class="cls-10" points="250.46 38.82 281.16 124.02 275.48 121.09 248.55 48.44 250.46 38.82"/><polygon class="cls-11" points="257.23 35.67 289.33 112.69 291.54 117.99 281.16 124.02 250.46 38.82 257.23 35.67"/><polygon class="cls-12" points="269.8 43.88 257.23 35.67 291.54 117.99 291.54 112.08 269.8 43.88"/><polygon class="cls-9" points="279.32 48.46 291.54 112.08 269.8 43.88 279.32 48.46"/><polygon class="cls-7" points="289.22 48.46 300.08 111.13 291.54 112.08 280.15 52.81 289.22 48.46"/><polygon class="cls-12" points="303.87 58.06 303.82 106.72 300.08 111.13 289.22 48.46 303.87 58.06"/></g></g></g></svg>